<svg width="512" height="512" viewBox="0 0 512 512" fill="none" xmlns="http://www.w3.org/2000/svg">
<path d="M386.788 141.546C384.086 140.15 381.455 138.621 378.906 136.963C371.493 132.067 364.697 126.298 358.664 119.78C343.567 102.523 337.929 85.0152 335.852 72.7575H335.936C334.201 62.583 334.918 56 335.026 56H266.267V321.637C266.267 325.203 266.267 328.728 266.117 332.211C266.117 332.645 266.075 333.045 266.05 333.511C266.05 333.703 266.05 333.903 266.009 334.103C266.009 334.153 266.009 334.203 266.009 334.253C265.284 343.784 262.226 352.991 257.104 361.064C251.981 369.137 244.952 375.829 236.633 380.55C227.964 385.478 218.158 388.063 208.184 388.05C176.148 388.05 150.184 361.951 150.184 329.72C150.184 297.488 176.148 271.389 208.184 271.389C214.248 271.384 220.275 272.337 226.041 274.214L226.124 204.268C208.621 202.009 190.838 203.398 173.899 208.349C156.96 213.3 141.231 221.705 127.706 233.033C115.855 243.321 105.891 255.596 98.2641 269.306C95.3616 274.306 84.4105 294.396 83.0843 327.003C82.2503 345.511 87.8134 364.685 90.4657 372.609V372.776C92.1338 377.442 98.5977 393.367 109.132 406.791C117.626 417.559 127.662 427.019 138.916 434.864V434.698L139.083 434.864C172.37 457.463 209.276 455.98 209.276 455.98C215.665 455.722 237.067 455.98 261.371 444.472C288.328 431.715 303.674 412.707 303.674 412.707C313.479 401.35 321.275 388.407 326.728 374.434C332.95 358.093 335.026 338.494 335.026 330.661V189.735C335.861 190.235 346.97 197.576 346.97 197.576C346.97 197.576 362.976 207.826 387.947 214.5C405.863 219.25 430 220.25 430 220.25V152.054C421.543 152.97 404.37 150.304 386.788 141.546Z" fill="black"/>
</svg>
