<svg width="640" height="640" viewBox="0 0 640 640" fill="none" xmlns="http://www.w3.org/2000/svg">
<g clip-path="url(#clip0_3895_9623)">
<path d="M590.209 183.684C583.71 159.391 564.626 140.301 540.345 133.798C496.38 122 320 122 320 122C320 122 143.623 122 99.6556 133.798C75.3742 140.301 56.2925 159.391 49.7926 183.684C38 227.671 38 319.5 38 319.5C38 319.5 38 411.33 49.7926 455.317C56.2925 479.609 75.3742 498.7 99.6556 505.201C143.623 517 320 517 320 517C320 517 496.38 517 540.345 505.201C564.626 498.7 583.71 479.609 590.209 455.317C602.002 411.33 602.002 319.5 602.002 319.5C602.002 319.5 601.955 227.671 590.209 183.684Z" fill="#FF0000"/>
<path d="M263.547 404.136L410.072 319.507L263.547 234.877V404.136Z" fill="white"/>
</g>
<defs>
<clipPath id="clip0_3895_9623">
<rect width="564" height="395" fill="white" transform="translate(38 122)"/>
</clipPath>
</defs>
</svg>
